<?xml version="1.0" encoding="UTF-8" standalone="no"?>
<svg
   width="659.4726"
   height="729.34515"
   viewBox="0 0 19.784178 21.880355"
   version="1.1"
   id="svg8"
   sodipodi:docname="user-settings.svg"
   xml:space="preserve"
   xmlns:inkscape="http://www.inkscape.org/namespaces/inkscape"
   xmlns:sodipodi="http://sodipodi.sourceforge.net/DTD/sodipodi-0.dtd"
   xmlns="http://www.w3.org/2000/svg"
   xmlns:svg="http://www.w3.org/2000/svg"><defs
     id="defs12" /><sodipodi:namedview
     id="namedview10"
     pagecolor="#000000"
     bordercolor="#cccccc"
     borderopacity="1"
     inkscape:showpageshadow="0"
     inkscape:pageopacity="1"
     inkscape:pagecheckerboard="0"
     inkscape:deskcolor="#d1d1d1"
     showgrid="false" /><path
     d="m 9.8196546,11.625 c 3.2100004,0 5.8125004,-2.6024999 5.8125004,-5.8125 0,-3.21 -2.6025,-5.8125 -5.8125004,-5.8125 -3.21,0 -5.8125,2.6025 -5.8125,5.8125 v 0 c 0.00375,3.2085001 2.604,5.80875 5.8125,5.8125 z m 0,-10.5 c 2.5890004,0 4.6875004,2.0985 4.6875004,4.6875 0,2.589 -2.0985,4.6875 -4.6875004,4.6875 -2.589,0 -4.6875,-2.0985 -4.6875,-4.6875 v 0 c 0.003,-2.5875 2.1,-4.6845 4.6875,-4.6875 z"
     id="path120-6"
     sodipodi:nodetypes="cssssccssssc"
     style="fill:#ffffff;stroke-width:0.75" /><path
     d="m 10.82025,12.13943 c -5.2702499,0 -9.6802499,3.68475 -10.79325,8.61825 L 0.01275,20.83193 C 0.0045,20.86793 0,20.90918 0,20.95193 c 0,0.3105 0.252,0.5625 0.5625,0.5625 0.26775,0 0.4920001,-0.1875 0.5482501,-0.43875 l 7.5e-4,-0.0038 c 1.01325,-4.4985 5.0466977,-7.799506 9.7806979,-7.799506 -0.08012,-1.171932 -0.0015,0.0131 -0.07195,-1.132944 z"
     id="path120-7"
     sodipodi:nodetypes="cccsscccc"
     style="fill:#ffffff;stroke-width:0.75" /><g
     style="fill:none"
     id="g710"
     transform="matrix(0.49211492,0,0,0.49756673,9.080677,11.058276)"><path
       d="m 11,3 h 2 c 0.5523,0 1,0.44772 1,1 v 0.56879 c 0,0.4278 0.2871,0.79946 0.6822,0.96349 0.3953,0.1641 0.8555,0.10156 1.1581,-0.20105 l 0.4023,-0.40232 c 0.3905,-0.39053 1.0237,-0.39053 1.4142,0 l 1.4142,1.41421 c 0.3906,0.39053 0.3905,1.02369 0,1.41422 L 18.6688,8.1596 C 18.3661,8.46223 18.3036,8.92247 18.4677,9.31774 18.6317,9.71287 19.0034,10 19.4313,10 H 20 c 0.5523,0 1,0.4477 1,1 v 2 c 0,0.5523 -0.4477,1 -1,1 h -0.5688 c -0.4278,0 -0.7994,0.2871 -0.9635,0.6822 -0.1641,0.3953 -0.1016,0.8555 0.2011,1.1581 l 0.4022,0.4023 c 0.3906,0.3905 0.3906,1.0237 0,1.4142 l -1.4142,1.4142 c -0.3905,0.3906 -1.0237,0.3906 -1.4142,0 L 15.8403,18.6688 C 15.5377,18.3661 15.0775,18.3036 14.6822,18.4677 14.2871,18.6318 14,19.0034 14,19.4312 V 20 c 0,0.5523 -0.4477,1 -1,1 h -2 c -0.5523,0 -1,-0.4477 -1,-1 V 19.4313 C 10,19.0034 9.71287,18.6317 9.31774,18.4677 8.92247,18.3036 8.46223,18.3661 8.1596,18.6688 L 7.75732,19.071 c -0.39053,0.3906 -1.02369,0.3906 -1.41421,0 L 4.92889,17.6568 c -0.39052,-0.3905 -0.39052,-1.0237 0,-1.4142 L 5.33123,15.8403 C 5.63384,15.5377 5.69638,15.0775 5.53228,14.6822 5.36825,14.2871 4.99659,14 4.56879,14 H 4 C 3.44772,14 3,13.5523 3,13 V 11 C 3,10.4477 3.44772,10 4,10 H 4.56877 C 4.99658,10 5.36825,9.71288 5.53229,9.31776 5.6964,8.9225 5.63386,8.46229 5.33123,8.15966 L 4.92891,7.75734 c -0.39053,-0.39053 -0.39053,-1.02369 0,-1.41421 L 6.34312,4.92891 c 0.39053,-0.39052 1.02369,-0.39052 1.41422,0 L 8.15966,5.33123 C 8.46228,5.63386 8.9225,5.6964 9.31776,5.53229 9.71288,5.36825 10,4.99658 10,4.56876 V 4 c 0,-0.55228 0.4477,-1 1,-1 z"
       stroke="#ffffff"
       stroke-width="1.5"
       id="path698" /><path
       d="m 14,12 c 0,1.1046 -0.8954,2 -2,2 -1.1046,0 -2,-0.8954 -2,-2 0,-1.1046 0.8954,-2 2,-2 1.1046,0 2,0.8954 2,2 z"
       stroke="#ffffff"
       stroke-width="1.5"
       id="path700" /></g></svg>
